<?xml version="1.0" encoding="UTF-8" standalone="no"?>
<svg
   xmlns:dc="http://purl.org/dc/elements/1.1/"
   xmlns:cc="http://creativecommons.org/ns#"
   xmlns:rdf="http://www.w3.org/1999/02/22-rdf-syntax-ns#"
   xmlns:svg="http://www.w3.org/2000/svg"
   xmlns="http://www.w3.org/2000/svg"
   xmlns:sodipodi="http://sodipodi.sourceforge.net/DTD/sodipodi-0.dtd"
   xmlns:inkscape="http://www.inkscape.org/namespaces/inkscape"
   id="svg8"
   version="1.1"
   viewBox="0 0 33.866666 33.866668"
   height="128"
   width="128"
   sodipodi:docname="reaction_icon.svg"
   inkscape:version="0.92.4 (5da689c313, 2019-01-14)">
  <sodipodi:namedview
     pagecolor="#ffffff"
     bordercolor="#666666"
     borderopacity="1"
     objecttolerance="10"
     gridtolerance="10"
     guidetolerance="10"
     inkscape:pageopacity="0"
     inkscape:pageshadow="2"
     inkscape:window-width="1920"
     inkscape:window-height="1017"
     id="namedview9"
     showgrid="true"
     inkscape:zoom="2.8284271"
     inkscape:cx="-5.8559569"
     inkscape:cy="60.172382"
     inkscape:window-x="1912"
     inkscape:window-y="-8"
     inkscape:window-maximized="1"
     inkscape:current-layer="layer1">
    <inkscape:grid
       type="xygrid"
       id="grid839"
       spacingx="2.1166667"
       spacingy="2.1166667"
       dotted="false" />
  </sodipodi:namedview>
  <defs
     id="defs2">
    <filter
       y="-100%"
       x="-100%"
       width="300%"
       height="300%"
       id="shadow-1">
      <feFlood
         id="feFlood4637"
         result="flood"
         flood-color="rgba(0, 0, 0, 1)" />
      <feComposite
         id="feComposite4639"
         result="composite"
         operator="atop"
         in2="SourceGraphic"
         in="flood" />
      <feGaussianBlur
         id="feGaussianBlur4641"
         result="blur"
         stdDeviation="1"
         in="composite" />
      <feOffset
         id="feOffset4643"
         result="offset"
         dy="5"
         dx="5" />
      <feComposite
         id="feComposite4645"
         operator="over"
         in2="offset"
         in="SourceGraphic" />
    </filter>
    <filter
       y="-100%"
       x="-100%"
       width="300%"
       height="300%"
       id="shadow-2">
      <feFlood
         id="feFlood4648"
         result="flood"
         flood-color="rgba(0, 0, 0, 1)" />
      <feComposite
         id="feComposite4650"
         result="composite"
         operator="atop"
         in2="SourceGraphic"
         in="flood" />
      <feGaussianBlur
         id="feGaussianBlur4652"
         result="blur"
         stdDeviation="1"
         in="composite" />
      <feOffset
         id="feOffset4654"
         result="offset"
         dy="5"
         dx="5" />
      <feComposite
         id="feComposite4656"
         operator="over"
         in2="offset"
         in="SourceGraphic" />
    </filter>
    <filter
       y="-100%"
       x="-100%"
       width="300%"
       height="300%"
       id="shadow-3">
      <feFlood
         id="feFlood4659"
         result="flood"
         flood-color="rgba(0, 0, 0, 1)" />
      <feComposite
         id="feComposite4661"
         result="composite"
         operator="atop"
         in2="SourceGraphic"
         in="flood" />
      <feGaussianBlur
         id="feGaussianBlur4663"
         result="blur"
         stdDeviation="1"
         in="composite" />
      <feOffset
         id="feOffset4665"
         result="offset"
         dy="5"
         dx="5" />
      <feComposite
         id="feComposite4667"
         operator="over"
         in2="offset"
         in="SourceGraphic" />
    </filter>
    <filter
       y="-100%"
       x="-100%"
       width="300%"
       height="300%"
       id="shadow-4">
      <feFlood
         id="feFlood4670"
         result="flood"
         flood-color="rgba(0, 0, 0, 1)" />
      <feComposite
         id="feComposite4672"
         result="composite"
         operator="atop"
         in2="SourceGraphic"
         in="flood" />
      <feGaussianBlur
         id="feGaussianBlur4674"
         result="blur"
         stdDeviation="1"
         in="composite" />
      <feOffset
         id="feOffset4676"
         result="offset"
         dy="5"
         dx="5" />
      <feComposite
         id="feComposite4678"
         operator="over"
         in2="offset"
         in="SourceGraphic" />
    </filter>
    <radialGradient
       id="gradient-0">
      <stop
         id="stop4681"
         stop-opacity="1"
         stop-color="#969696"
         offset="0%" />
      <stop
         id="stop4683"
         stop-opacity="1"
         stop-color="#646464"
         offset="100%" />
    </radialGradient>
    <filter
       y="-1"
       x="-1"
       width="3"
       height="3"
       id="shadow-1-0">
      <feFlood
         id="feFlood4637-8"
         result="flood"
         flood-color="rgba(0, 0, 0, 1)" />
      <feComposite
         id="feComposite4639-9"
         result="composite"
         operator="atop"
         in2="SourceGraphic"
         in="flood" />
      <feGaussianBlur
         id="feGaussianBlur4641-1"
         result="blur"
         stdDeviation="1"
         in="composite" />
      <feOffset
         id="feOffset4643-1"
         result="offset"
         dy="5"
         dx="5" />
      <feComposite
         id="feComposite4645-8"
         operator="over"
         in2="offset"
         in="SourceGraphic" />
    </filter>
  </defs>
  <metadata
     id="metadata5">
    <rdf:RDF>
      <cc:Work
         rdf:about="">
        <dc:format>image/svg+xml</dc:format>
        <dc:type
           rdf:resource="http://purl.org/dc/dcmitype/StillImage" />
        <dc:title></dc:title>
      </cc:Work>
    </rdf:RDF>
  </metadata>
  <g
     transform="translate(0,-263.13332)"
     id="layer1">
    <text
       id="text1373"
       y="289.32501"
       x="8.2516928"
       style="font-style:normal;font-variant:normal;font-weight:normal;font-stretch:normal;font-size:10.58333302px;line-height:1.25;font-family:Lora;-inkscape-font-specification:Lora;letter-spacing:0px;word-spacing:0px;opacity:0.5;fill:#000000;fill-opacity:1;stroke:none;stroke-width:0.26458332"
       xml:space="preserve"><tspan
         style="font-size:25.39999962px;stroke-width:0.26458332"
         y="289.32501"
         x="8.2516928"
         id="tspan1371" /></text>
    <circle
       style="opacity:0.5;fill:none;fill-opacity:1;stroke:#000000;stroke-width:1.58749998;stroke-linecap:butt;stroke-linejoin:miter;stroke-miterlimit:4;stroke-dasharray:none;stroke-opacity:1;paint-order:markers fill stroke"
       id="path4566"
       cx="16.933334"
       cy="280.06665"
       r="14.816667" />
    <path
       inkscape:connector-curvature="0"
       d="m 10.142072,268.95958 v 0.44256 c 0,4.82932 1.807473,8.98328 4.563586,10.52014 v 0.28865 c -2.756161,1.53686 -4.563632,5.6908 -4.563632,10.52018 v 0.44261 h 13.582711 v -0.44261 c 0,-4.8577 -1.838073,-9.01292 -4.619812,-10.52464 v -0.27975 c 2.78155,-1.51185 4.619812,-5.66712 4.619812,-10.52462 v -0.44252 H 10.14193 Z m 0.897011,0.88508 h 11.788739 c -0.117331,4.56842 -2.024608,8.31419 -4.35493,9.4218 l -0.253088,0.11993 v 1.36189 l 0.253136,0.11983 c 2.330179,1.10761 4.237362,4.8523 4.354882,9.42038 H 11.039083 c 0.116334,-4.5425 1.995382,-8.29311 4.304577,-9.42331 l 0.248683,-0.12135 v -1.35445 l -0.248683,-0.12135 c -2.309101,-1.13021 -4.188289,-4.88082 -4.304577,-9.42333 z m 10.120482,4.07957 c -0.914804,0.44163 -1.879184,0.73536 -2.851739,0.88834 -1.928446,0.30336 -3.88904,0.0534 -5.559039,-0.69436 0.694133,2.41128 2.075482,4.12751 3.700681,4.41115 -0.07295,0.097 -0.116998,0.21719 -0.116998,0.34788 0,0.3202 0.259955,0.58026 0.580259,0.58026 0.320302,0 0.580259,-0.26006 0.580259,-0.58026 0,-0.12885 -0.04296,-0.24717 -0.113964,-0.34342 1.678062,-0.27853 3.102043,-2.08751 3.780543,-4.60954 z m -4.246836,6.24531 c -0.320304,0 -0.580259,0.25995 -0.580259,0.58026 0,0.32029 0.259955,0.58025 0.580259,0.58025 0.320302,0 0.580259,-0.25996 0.580259,-0.58025 0,-0.32031 -0.259957,-0.58026 -0.580259,-0.58026 z m 0,1.86061 c -0.320304,0 -0.580259,0.26005 -0.580259,0.58027 0,0.32034 0.259955,0.58026 0.580259,0.58026 0.320302,0 0.580259,-0.25992 0.580259,-0.58026 0,-0.32022 -0.259957,-0.58027 -0.580259,-0.58027 z m 0,1.87261 c -0.320304,0 -0.580259,0.25995 -0.580259,0.58026 0,0.3202 0.259955,0.58026 0.580259,0.58026 0.320302,0 0.580259,-0.26006 0.580259,-0.58026 0,-0.32031 -0.259957,-0.58026 -0.580259,-0.58026 z m 0.006,1.89026 c -1.099415,0.0133 -2.187933,1.22069 -3.591119,3.58369 h 7.247321 c -1.445817,-2.41592 -2.556789,-3.59695 -3.656202,-3.58369 z"
       clip-path="none"
       id="path4690-2"
       style="fill:#000000;fill-opacity:0.50196078;stroke:none;stroke-width:0.13592921;stroke-miterlimit:4;stroke-dasharray:none;stroke-opacity:0"
       sodipodi:nodetypes="csccsccsccsccccccccccccccccccsccssscccssssssssssssssscccc" />
  </g>
</svg>
